<svg width="20" height="16" viewBox="0 0 20 16" fill="none" xmlns="http://www.w3.org/2000/svg">
<path fill-rule="evenodd" clip-rule="evenodd" d="M17.4 3.99919C17.4234 4.10259 17.4367 4.26846 17.4367 4.50003C17.4367 6.34615 17.011 8.12871 16.1605 9.84665C15.2865 11.6669 14.0583 13.1156 12.4788 14.1916C10.7523 15.3968 8.77161 16 6.53566 16C4.39669 16 2.44049 15.3968 0.666016 14.1916C0.933514 14.2174 1.23675 14.2304 1.57776 14.2304C3.35121 14.2304 4.94394 13.6541 6.35392 12.5006C5.50344 12.5006 4.75506 12.2367 4.11082 11.7111C3.4676 11.1865 3.02347 10.5263 2.7815 9.73033C3.02347 9.75618 3.25523 9.76802 3.4727 9.76802C3.81371 9.76802 4.15268 9.73033 4.49369 9.65385C3.6187 9.44921 2.88972 8.97422 2.30674 8.23103C1.72376 7.48677 1.43175 6.64127 1.43175 5.69128V5.61481C1.96573 5.9487 2.53748 6.12858 3.14497 6.15335C2.63447 5.76991 2.22098 5.28199 1.90549 4.69283C1.59001 4.10259 1.43175 3.45527 1.43175 2.74978C1.43175 2.04537 1.61451 1.3722 1.979 0.730259C2.92648 1.98721 4.08734 2.98782 5.46056 3.731C6.83276 4.47418 8.29788 4.88347 9.85284 4.9621C9.80485 4.65298 9.78035 4.34601 9.78035 4.03797C9.78035 3.32063 9.94983 2.64746 10.2908 2.01845C10.6308 1.39051 11.0923 0.897206 11.6773 0.538539C12.2603 0.178795 12.8913 0 13.5723 0C14.1318 0 14.6484 0.115247 15.1221 0.345742C15.5949 0.576237 16.0155 0.884281 16.38 1.2688C17.254 1.09 18.0687 0.769034 18.8222 0.306967C18.5302 1.25587 17.9717 2.00013 17.1447 2.53867C17.8747 2.43635 18.6037 2.2177 19.3327 1.88381C18.7977 2.70562 18.1534 3.41003 17.4 3.99919Z" fill="white"/>
</svg>
